<?xml version="1.0" encoding="UTF-8"?>
<svg id="Layer_1" data-name="Layer 1" xmlns="http://www.w3.org/2000/svg" viewBox="0 0 1000 431">
  <defs>
    <style>
      .cls-1 {
        fill: #121212;
      }
    </style>
  </defs>
  <path class="cls-1" d="M87.39,394.28v-170.36h-35.58v203.16h120.33v-32.8h-84.75Z"/>
  <path class="cls-1" d="M237.15,430.68c-14.46,0-25.9-3.94-34.32-11.82-4.2-3.96-7.5-8.78-9.68-14.12-2.18-5.35-3.19-11.1-2.96-16.86-.24-5.7.83-11.37,3.12-16.59,2.29-5.22,5.74-9.85,10.08-13.54,8.8-7.52,21.35-11.92,37.65-13.2l41.12-3.3v-3.04c.3-5.26-.84-10.49-3.3-15.15-2.31-3.78-5.78-6.71-9.9-8.35-4.79-1.85-9.89-2.75-15.02-2.64-9.9,0-17.69,2.01-23.1,5.97-2.62,1.93-4.73,4.47-6.13,7.41-1.4,2.94-2.06,6.17-1.92,9.42h-28.98c-.22-9.25,2.44-18.34,7.62-26.01,5.47-7.62,12.99-13.53,21.68-17.06,10.25-4.27,21.27-6.36,32.38-6.14,11.01-.28,21.94,1.98,31.95,6.6,8.72,4.19,15.9,10.99,20.56,19.47,5.12,9.9,7.61,20.94,7.23,32.08v83.4h-29.7l-2.48-20.3c-3.5,7.57-9.55,13.67-17.1,17.23-8.92,4.52-18.82,6.76-28.81,6.54ZM248.01,405.11c4.57.25,9.14-.41,13.46-1.93,4.32-1.52,8.29-3.88,11.69-6.94,3.19-3.25,5.67-7.13,7.27-11.39,1.6-4.26,2.3-8.81,2.03-13.36v-7.23l-28.65,2.24c-10.56.93-18.06,3.12-22.51,6.6-2.1,1.55-3.79,3.58-4.94,5.93-1.15,2.34-1.72,4.93-1.66,7.54-.17,2.64.3,5.27,1.36,7.69,1.06,2.42,2.69,4.55,4.74,6.2,5.06,3.41,11.11,5.05,17.19,4.65Z"/>
  <path class="cls-1" d="M380.02,427.09h-31.42v-206.79h33.89v89.5c4.49-7.83,11.29-14.09,19.47-17.92,8.92-4.28,18.72-6.42,28.61-6.27,11.93-.35,23.69,2.89,33.76,9.31,9.55,6.43,17.07,15.46,21.68,26.01,5.32,12.16,7.94,25.34,7.66,38.61.24,12.78-2.52,25.44-8.05,36.96-5.04,10.39-12.95,19.12-22.8,25.15-10.41,6.19-22.35,9.32-34.45,9.04-9.63.16-19.14-2.11-27.66-6.6-7.89-4.09-14.34-10.49-18.48-18.35l-2.21,21.35ZM382.79,357.78c-.14,7.54,1.47,15.01,4.72,21.82,2.93,6.13,7.62,11.25,13.46,14.72,6.22,3.53,13.28,5.31,20.43,5.15,7.21.21,14.34-1.62,20.56-5.28,5.77-3.48,10.37-8.6,13.2-14.72,2.94-6.85,4.46-14.23,4.46-21.68s-1.52-14.83-4.46-21.68c-2.85-6.14-7.44-11.32-13.2-14.88-6.25-3.55-13.31-5.41-20.49-5.41s-14.25,1.86-20.49,5.41c-5.77,3.57-10.43,8.68-13.46,14.75-3.3,6.82-4.92,14.34-4.72,21.91v-.1Z"/>
  <path class="cls-1" d="M510.05,385.37h32.24c-.02,2.71.57,5.38,1.71,7.84,1.14,2.45,2.81,4.62,4.89,6.35,5.12,3.8,11.42,5.67,17.79,5.28,6.47.44,12.92-1.12,18.48-4.45,1.99-1.29,3.61-3.06,4.72-5.15,1.11-2.09,1.66-4.43,1.62-6.8.04-3.27-1.14-6.43-3.3-8.88-3.45-3.21-7.83-5.26-12.51-5.84l-24.75-5.84c-12.41-2.77-21.63-7.27-27.65-13.5-3.12-3.47-5.53-7.53-7.08-11.94-1.55-4.41-2.2-9.08-1.93-13.74-.22-8.26,2.26-16.37,7.06-23.1,4.95-6.65,11.64-11.8,19.34-14.88,8.91-3.58,18.45-5.33,28.05-5.15,9.29-.2,18.51,1.71,26.96,5.58,7.51,3.34,13.88,8.8,18.33,15.71s6.77,14.98,6.69,23.2h-32.24c.13-2.6-.29-5.2-1.25-7.63-.96-2.42-2.42-4.62-4.29-6.43-4.35-3.62-9.92-5.45-15.58-5.11-5.54-.33-11.03,1.23-15.58,4.42-1.8,1.42-3.24,3.23-4.2,5.31-.96,2.08-1.42,4.35-1.34,6.64,0,7.61,5.93,12.8,17.79,15.58l24.75,5.84c9.65,1.69,18.64,6.02,25.97,12.51,5.83,5.74,8.74,13.89,8.74,24.46.21,8.57-2.32,16.99-7.23,24.03-5.14,7.01-12.17,12.41-20.26,15.58-9.56,3.75-19.76,5.59-30.03,5.41-17.03,0-30.6-4.17-40.73-12.51-4.89-3.92-8.81-8.91-11.45-14.6-2.63-5.69-3.91-11.91-3.73-18.17Z"/>
  <path class="cls-1" d="M382.49,26.97h-33.89v42.8h-26.4v28.35h26.4v108.94h33.89v-108.94h26.4v-28.35h-26.4V26.97Z"/>
  <path class="cls-1" d="M508.99,65.61c-9.15-.17-18.21,1.88-26.4,5.97-7.29,3.64-13.49,9.15-17.95,15.97V.3h-34.16v206.63h33.89v-74.91c-.11-6.34,1.27-12.61,4.03-18.32,2.57-5.27,6.64-9.68,11.68-12.67,5.53-3.15,11.82-4.73,18.18-4.55,5.25-.14,10.44,1.15,15.02,3.73,4.35,2.68,7.8,6.6,9.9,11.25,2.62,6.04,3.86,12.59,3.63,19.18v76.3h33.89v-84.49c0-17.6-4.4-31.49-13.2-41.68-8.8-10.19-21.64-15.24-38.51-15.15Z"/>
  <path class="cls-1" d="M627.9,69.77h-33.89v137.29h33.89V69.77Z"/>
  <path class="cls-1" d="M610.67,1.42c-2.7-.07-5.38.41-7.89,1.41-2.51,1-4.79,2.49-6.7,4.4-1.94,1.86-3.48,4.11-4.51,6.6-1.03,2.49-1.53,5.16-1.46,7.86,0,5.45,2.17,10.68,6.02,14.54,3.86,3.86,9.09,6.02,14.54,6.02s10.68-2.17,14.54-6.02c3.86-3.86,6.02-9.09,6.02-14.54.06-2.69-.45-5.36-1.47-7.85-1.03-2.49-2.56-4.74-4.5-6.6-1.92-1.9-4.2-3.39-6.7-4.39-2.51-1-5.19-1.48-7.89-1.42Z"/>
  <path class="cls-1" d="M734.07,67.56c-9.65-.43-19.12,2.63-26.7,8.61-4.58,3.8-8.19,8.65-10.53,14.12l-1.98-20.23h-31.95v136.86h33.89v-66.57c0-13.33,3.52-23.29,10.56-29.87,7.04-6.58,16.77-9.88,29.17-9.9h12.51v-31.42c-2.54-.68-5.14-1.15-7.76-1.39-2.44-.13-4.85-.23-7.23-.23Z"/>
  <path class="cls-1" d="M824.36,26.97h-33.89v42.8h-26.4v28.35h26.4v108.94h33.89v-108.94h26.4v-28.35h-26.4V26.97Z"/>
  <path class="cls-1" d="M964.98,69.77l-37.16,100.13-35.38-100.13h-35.84l55.21,143.2-3.8,10.2c-1.36,4.52-3.68,8.7-6.8,12.24-2.48,2.64-5.59,4.6-9.04,5.71-3.8,1.06-7.74,1.58-11.68,1.52h-20.26v28.05c3.85,1.15,7.79,1.95,11.78,2.38,4.48.48,8.99.71,13.5.69,10.14.35,20.12-2.68,28.35-8.61,7.59-5.74,13.88-14.92,18.88-27.52l67.26-167.85h-35.02Z"/>
  <path class="cls-1" d="M51.75,3.9H0v32.8h51.75v170.36h35.58V3.9h-35.58Z"/>
  <path class="cls-1" d="M208.9.3c-20.78,0-41.09,6.16-58.36,17.7-17.27,11.54-30.74,27.95-38.69,47.14-7.95,19.19-10.03,40.32-5.98,60.69,4.05,20.38,14.06,39.09,28.75,53.78,14.69,14.69,33.41,24.7,53.79,28.75,20.38,4.05,41.5,1.97,60.69-5.98,19.19-7.95,35.6-21.41,47.14-38.69,11.54-17.27,17.7-37.58,17.7-58.36,0-27.86-11.07-54.58-30.77-74.28C263.48,11.37,236.76.3,208.9.3ZM208.9,197.75l-14.92-86.53-37.82-58.91,67.65,46.57-14.92,98.87Z"/>
</svg>