<svg width="1000" height="291" viewBox="0 0 1000 291" fill="none" xmlns="http://www.w3.org/2000/svg">
<g clip-path="url(#clip0_103_3)">
<path d="M383.563 266.111V151.044H359.533V288.268H363.657H383.563H440.806V266.111H383.563Z" fill="white"/>
<path d="M484.719 290.698C474.956 290.698 467.228 288.038 461.537 282.718C458.702 280.04 456.473 276.787 455 273.177C453.528 269.566 452.845 265.683 452.999 261.786C452.84 257.939 453.561 254.107 455.106 250.58C456.651 247.054 458.98 243.926 461.916 241.435C467.86 236.352 476.338 233.38 487.35 232.518L515.124 230.289V228.238C515.293 224.678 514.483 221.14 512.784 218.007C511.224 215.452 508.877 213.473 506.096 212.367C502.871 211.12 499.434 210.514 495.976 210.584C489.289 210.584 484.006 211.943 480.373 214.618C478.597 215.918 477.17 217.635 476.218 219.618C475.265 221.602 474.816 223.789 474.911 225.987H455.451C455.3 219.739 457.1 213.599 460.6 208.422C464.309 203.258 469.401 199.247 475.29 196.852C482.213 193.968 489.66 192.557 497.158 192.706C504.604 192.523 511.993 194.048 518.758 197.165C524.641 199.999 529.495 204.596 532.645 210.316C536.096 217.002 537.77 224.464 537.505 231.983V288.313H517.443L515.748 274.604C513.386 279.718 509.298 283.837 504.202 286.24C498.175 289.31 491.482 290.842 484.719 290.698ZM492.053 273.422C495.139 273.588 498.228 273.144 501.143 272.115C504.057 271.086 506.741 269.493 509.039 267.426C511.195 265.232 512.868 262.611 513.951 259.732C515.033 256.853 515.501 253.779 515.325 250.708V245.826L495.999 247.342C488.843 247.966 483.783 249.437 480.774 251.8C479.356 252.847 478.21 254.22 477.434 255.803C476.658 257.386 476.275 259.132 476.316 260.895C476.204 262.677 476.523 264.459 477.245 266.092C477.966 267.725 479.069 269.161 480.462 270.279C483.869 272.585 487.947 273.691 492.053 273.422Z" fill="white"/>
<path d="M581.217 288.268H559.996V148.592H582.889V209.046C585.929 203.759 590.52 199.533 596.041 196.942C602.068 194.052 608.684 192.603 615.367 192.707C623.426 192.471 631.371 194.661 638.171 198.992C644.621 203.339 649.701 209.431 652.816 216.558C656.411 224.773 658.176 233.673 657.988 242.638C658.148 251.271 656.286 259.821 652.549 267.604C649.145 274.623 643.799 280.518 637.145 284.59C630.116 288.773 622.051 290.89 613.874 290.698C607.371 290.807 600.946 289.274 595.194 286.24C589.865 283.48 585.508 279.155 582.711 273.846L581.217 288.268ZM583.09 241.457C582.992 246.55 584.083 251.595 586.277 256.191C588.257 260.334 591.422 263.794 595.372 266.133C599.573 268.517 604.341 269.719 609.17 269.611C614.049 269.749 618.869 268.513 623.08 266.044C626.939 263.68 630.005 260.219 631.885 256.102C633.871 251.475 634.895 246.492 634.895 241.457C634.895 236.422 633.871 231.439 631.885 226.812C629.989 222.676 626.929 219.183 623.08 216.759C618.855 214.363 614.082 213.104 609.226 213.104C604.37 213.104 599.596 214.363 595.372 216.759C591.474 219.171 588.324 222.621 586.277 226.723C584.045 231.33 582.952 236.406 583.09 241.524V241.457Z" fill="white"/>
<path d="M669.045 260.092H690.824C690.813 261.92 691.207 263.728 691.977 265.385C692.748 267.042 693.877 268.508 695.282 269.677C698.742 272.243 702.997 273.506 707.297 273.244C711.668 273.539 716.024 272.489 719.78 270.235C721.113 269.36 722.202 268.16 722.943 266.749C723.684 265.337 724.053 263.759 724.015 262.165C724.039 259.96 723.245 257.823 721.786 256.169C719.454 253.999 716.498 252.618 713.338 252.223L696.619 248.278C688.238 246.406 682.011 243.367 677.939 239.161C675.83 236.816 674.205 234.076 673.161 231.099C672.116 228.122 671.672 224.968 671.854 221.819C671.707 216.237 673.382 210.76 676.624 206.215C679.966 201.722 684.488 198.242 689.687 196.162C695.706 193.746 702.149 192.563 708.634 192.684C714.911 192.552 721.137 193.84 726.846 196.451C731.92 198.705 736.224 202.394 739.226 207.064C742.229 211.734 743.799 217.181 743.743 222.732H721.964C722.054 220.974 721.767 219.217 721.121 217.579C720.475 215.941 719.486 214.46 718.219 213.236C715.279 210.789 711.517 209.554 707.698 209.781C703.961 209.557 700.258 210.61 697.199 212.768C695.977 213.72 694.999 214.947 694.344 216.35C693.689 217.752 693.377 219.291 693.432 220.838C693.432 225.98 697.437 229.487 705.447 231.359L722.165 235.305C728.681 236.447 734.753 239.371 739.708 243.753C743.646 247.632 745.615 253.138 745.615 260.271C745.756 266.062 744.046 271.747 740.733 276.499C737.26 281.231 732.514 284.88 727.047 287.02C720.591 289.558 713.698 290.8 706.762 290.676C695.26 290.676 686.091 287.86 679.255 282.227C675.957 279.578 673.319 276.201 671.548 272.36C669.776 268.519 668.92 264.32 669.045 260.092Z" fill="white"/>
<path d="M582.911 18.011H559.996V46.9225H542.163V66.0706H559.996V139.653H582.911V66.0706H600.744V46.9225H582.911V18.011Z" fill="#4955F2"/>
<path d="M668.31 44.114C662.127 44.0003 656.009 45.3845 650.477 48.1487C645.551 50.6071 641.366 54.3305 638.351 58.9376V0H615.19V139.564H638.016V88.9636C637.946 84.6841 638.877 80.4474 640.736 76.5921C642.476 73.0306 645.218 70.0553 648.627 68.0323C652.363 65.9044 656.611 64.8406 660.909 64.9562C664.456 64.8633 667.961 65.7337 671.052 67.475C673.992 69.282 676.322 71.9301 677.739 75.0763C679.508 79.1578 680.345 83.5819 680.191 88.0274V139.564H703.084V82.4993C703.084 70.6107 700.112 61.2262 694.168 54.3457C688.223 47.4651 679.604 44.0546 668.31 44.114Z" fill="#4955F2"/>
<path d="M748.646 46.9227H725.753V139.654H748.646V46.9227Z" fill="#4955F2"/>
<path d="M737.01 0.757696C735.188 0.713156 733.376 1.03788 731.683 1.71211C729.99 2.38635 728.45 3.39617 727.157 4.68095C725.843 5.93854 724.806 7.4563 724.111 9.13739C723.416 10.8185 723.08 12.626 723.123 14.4445C723.123 18.1276 724.586 21.6599 727.19 24.2643C729.795 26.8687 733.327 28.3317 737.01 28.3317C740.693 28.3317 744.226 26.8687 746.83 24.2643C749.434 21.6599 750.898 18.1276 750.898 14.4445C750.941 12.626 750.604 10.8185 749.909 9.13739C749.215 7.4563 748.177 5.93854 746.863 4.68095C745.569 3.39826 744.029 2.38974 742.336 1.71565C740.643 1.04156 738.832 0.715722 737.01 0.757696Z" fill="#4955F2"/>
<path d="M820.356 45.4293C813.841 45.138 807.439 47.2034 802.323 51.2473C799.227 53.8157 796.789 57.0866 795.212 60.7878L793.875 47.1235H772.297V139.565H795.19V94.6034C795.19 85.5978 797.568 78.8734 802.323 74.43C807.093 69.9718 813.647 67.7427 822.028 67.7427H830.477V46.5216C828.761 46.0601 827.008 45.7469 825.238 45.5854C823.611 45.4962 821.961 45.4293 820.356 45.4293Z" fill="#4955F2"/>
<path d="M881.368 18.011H858.453V46.9225H840.62V66.0706H858.453V139.653H881.368V66.0706H899.201V46.9225H881.368V18.011Z" fill="#4955F2"/>
<path d="M976.328 46.9227L951.228 114.554L927.332 46.9227H903.124L940.417 143.644L937.854 150.532C936.932 153.585 935.366 156.405 933.262 158.802C931.586 160.584 929.484 161.911 927.154 162.658C924.586 163.377 921.929 163.722 919.263 163.683H905.509V182.631C908.107 183.409 910.771 183.946 913.467 184.236C916.495 184.558 919.539 184.715 922.584 184.704C929.436 184.946 936.173 182.899 941.732 178.886C946.859 175.007 951.109 168.81 954.483 160.295L999.912 46.9227H976.328Z" fill="#4955F2"/>
<path d="M359.511 2.42957H324.536V24.5869H359.511V139.653H383.541V2.42957H379.394H359.511Z" fill="#4955F2"/>
<path d="M465.638 0C451.605 0 437.887 4.16128 426.219 11.9576C414.551 19.754 405.457 30.8352 400.087 43.8001C394.716 56.765 393.311 71.0312 396.049 84.7947C398.787 98.5581 405.544 111.201 415.467 121.124C425.39 131.046 438.032 137.804 451.796 140.542C465.559 143.279 479.826 141.874 492.79 136.504C505.755 131.134 516.837 122.04 524.633 110.372C532.429 98.7035 536.591 84.9855 536.591 70.9524C536.591 52.1346 529.115 34.0876 515.809 20.7814C502.503 7.47525 484.456 0 465.638 0ZM465.638 118.811C456.173 118.811 446.919 116.005 439.049 110.746C431.179 105.487 425.045 98.0124 421.422 89.2673C417.8 80.5222 416.852 70.8994 418.699 61.6157C420.545 52.332 425.103 43.8042 431.797 37.111C438.49 30.4178 447.018 25.8598 456.301 24.0131C465.585 22.1665 475.208 23.1142 483.953 26.7365C492.698 30.3588 500.173 36.4932 505.431 44.3635C510.69 52.2339 513.497 61.4868 513.497 70.9524C513.497 83.6454 508.455 95.8186 499.48 104.794C490.504 113.769 478.331 118.811 465.638 118.811Z" fill="#4955F2"/>
<path d="M144.269 1.06983C115.73 1.06983 87.832 9.53286 64.1031 25.3887C40.3742 41.2444 21.8802 63.7809 10.9599 90.1477C0.0395624 116.515 -2.81657 145.528 2.7527 173.518C8.32198 201.508 22.0665 227.218 42.2481 247.396C62.4296 267.575 88.1418 281.315 116.133 286.88C144.124 292.445 173.136 289.585 199.502 278.66C225.867 267.736 248.4 249.238 264.252 225.507C280.105 201.776 288.563 173.877 288.559 145.338C288.559 126.39 284.827 107.628 277.575 90.1237C270.323 72.6188 259.695 56.7138 246.296 43.317C232.897 29.9202 216.99 19.294 199.485 12.0452C181.979 4.79633 163.216 1.0669 144.269 1.06983ZM144.269 272.263L123.806 153.563L71.8227 72.6911L164.732 136.644L144.269 272.263Z" fill="#4955F2"/>
</g>
<defs>
<clipPath id="clip0_103_3">
<rect width="1000" height="290.698" fill="white"/>
</clipPath>
</defs>
</svg>
