<svg width="1000" height="172" viewBox="0 0 1000 172" fill="none" xmlns="http://www.w3.org/2000/svg">
<g clip-path="url(#clip0_103_220)">
<path d="M664.138 109.004V2.25366H641.87V129.536H645.695H664.138H717.255V109.004H664.138Z" fill="#3F3F3F"/>
<path d="M757.985 131.81C748.929 131.81 741.762 129.343 736.482 124.408C733.854 121.924 731.787 118.907 730.421 115.558C729.056 112.209 728.422 108.607 728.563 104.993C728.419 101.422 729.089 97.8656 730.521 94.5916C731.954 91.3176 734.113 88.4122 736.834 86.0953C742.347 81.4087 750.211 78.6519 760.425 77.8248L786.188 75.7572V73.8552C786.375 70.5625 785.66 67.2808 784.12 64.3646C782.673 61.9953 780.497 60.1598 777.917 59.1338C774.919 57.9747 771.723 57.4127 768.51 57.4796C762.307 57.4796 757.427 58.741 754.036 61.2221C752.394 62.4298 751.074 64.0236 750.194 65.8629C749.314 67.7021 748.901 69.73 748.991 71.7669H730.9C730.76 65.9716 732.43 60.2767 735.676 55.4741C739.111 50.7012 743.818 46.9899 749.26 44.7637C755.686 42.1056 762.591 40.8034 769.544 40.9387C776.444 40.7658 783.291 42.1806 789.558 45.0739C795.023 47.6918 799.528 51.9586 802.439 57.2729C805.647 63.4726 807.207 70.3934 806.967 77.37V129.598H788.359L786.808 116.903C784.616 121.647 780.825 125.467 776.098 127.696C770.493 130.543 764.27 131.957 757.985 131.81ZM764.788 115.786C767.651 115.94 770.516 115.528 773.219 114.574C775.923 113.619 778.411 112.141 780.543 110.224C782.543 108.189 784.095 105.758 785.099 103.088C786.103 100.417 786.538 97.5658 786.374 94.7173V90.1893L768.427 91.5952C761.811 92.1741 757.11 93.5525 754.326 95.7304C753.011 96.7018 751.948 97.9754 751.228 99.4436C750.509 100.912 750.153 102.531 750.191 104.166C750.085 105.817 750.377 107.47 751.043 108.984C751.709 110.499 752.728 111.832 754.016 112.871C757.185 115.007 760.974 116.032 764.788 115.786Z" fill="#3F3F3F"/>
<path d="M847.494 129.536H827.872V0.00012207H849.106V56.0737C851.921 51.1655 856.181 47.2448 861.305 44.8465C866.896 42.1664 873.032 40.8216 879.231 40.918C886.707 40.6996 894.075 42.731 900.383 46.7488C906.37 50.7759 911.083 56.4283 913.967 63.0416C917.302 70.6618 918.939 78.9163 918.764 87.2325C918.913 95.2396 917.186 103.17 913.719 110.39C910.562 116.9 905.604 122.368 899.432 126.145C892.911 130.022 885.431 131.986 877.846 131.81C871.815 131.911 865.855 130.489 860.52 127.675C855.577 125.116 851.536 121.104 848.941 116.179L847.494 129.536ZM849.23 86.1159C849.14 90.8395 850.152 95.5191 852.187 99.7828C854.023 103.625 856.959 106.835 860.623 109.005C864.52 111.215 868.942 112.33 873.422 112.23C877.941 112.359 882.405 111.212 886.303 108.922C889.914 106.737 892.793 103.527 894.573 99.7003C896.415 95.4083 897.365 90.7864 897.365 86.1159C897.365 81.4454 896.415 76.8238 894.573 72.5318C892.785 68.6833 889.91 65.4419 886.303 63.2069C882.388 60.9849 877.964 59.8167 873.463 59.8167C868.962 59.8167 864.537 60.9849 860.623 63.2069C857.007 65.4442 854.086 68.6445 852.187 72.449C850.113 76.7288 849.099 81.4447 849.23 86.1987V86.1159Z" fill="#3F3F3F"/>
<path d="M928.957 103.422H949.157C949.147 105.117 949.513 106.794 950.228 108.331C950.943 109.868 951.989 111.228 953.293 112.313C956.502 114.693 960.449 115.864 964.437 115.621C968.491 115.895 972.532 114.921 976.016 112.83C977.252 112.018 978.262 110.906 978.95 109.596C979.637 108.287 979.979 106.823 979.944 105.345C979.967 103.299 979.23 101.317 977.877 99.7828C975.714 97.7698 972.972 96.4896 970.04 96.1233L954.533 92.4636C946.759 90.7268 940.983 87.9078 937.207 84.0069C933.444 80.1198 931.562 74.7648 931.562 67.9004C931.424 62.7232 932.978 57.6422 935.987 53.4271C939.087 49.2594 943.281 46.0318 948.103 44.1022C953.686 41.8612 959.663 40.7642 965.678 40.8766C971.5 40.7543 977.274 41.949 982.57 44.371C987.276 46.4612 991.268 49.8831 994.053 54.2148C996.838 58.5465 998.294 63.5987 998.243 68.7482H978.042C978.126 67.1171 977.859 65.4869 977.26 63.9676C976.661 62.4482 975.743 61.075 974.568 59.9401C971.846 57.6607 968.353 56.5134 964.809 56.7352C961.336 56.5204 957.893 57.4977 955.05 59.5058C953.923 60.3924 953.022 61.5323 952.418 62.8328C951.815 64.1333 951.526 65.5577 951.576 66.9905C951.576 71.7598 955.291 75.013 962.721 76.7498L978.228 80.4093C984.274 81.4615 989.908 84.1748 994.5 88.2456C998.153 91.8432 999.979 96.9503 999.979 103.567C1000.11 108.938 998.524 114.211 995.451 118.619C992.23 123.009 987.827 126.393 982.756 128.378C976.767 130.73 970.374 131.882 963.941 131.769C953.272 131.769 944.767 129.157 938.426 123.933C935.371 121.478 932.926 118.348 931.283 114.789C929.64 111.231 928.844 107.34 928.957 103.422Z" fill="#3F3F3F"/>
<path d="M239.636 16.7683H218.401V43.5852H201.86V61.346H218.401V129.598H239.636V61.346H256.177V43.5852H239.636V16.7683Z" fill="#4955F2"/>
<path d="M318.868 40.9801C313.133 40.8746 307.458 42.1585 302.327 44.7224C297.754 46.9906 293.877 50.4473 291.1 54.7298V0.0620117H269.617V129.598H290.852V82.5804C290.786 78.6043 291.65 74.6677 293.374 71.0844C295.001 67.7953 297.542 65.0457 300.693 63.1655C304.157 61.1846 308.097 60.1906 312.086 60.2915C315.377 60.2126 318.628 61.0272 321.493 62.6486C324.22 64.3247 326.381 66.781 327.696 69.6993C329.339 73.4844 330.116 77.5883 329.971 81.7119V129.598H351.205V76.6671C351.205 65.6398 348.448 56.9352 342.935 50.5532C337.421 44.1711 329.399 40.9801 318.868 40.9801Z" fill="#4955F2"/>
<path d="M393.384 43.5852H372.149V129.598H393.384V43.5852Z" fill="#4955F2"/>
<path d="M382.591 0.744526C380.899 0.707111 379.218 1.01187 377.647 1.64078C376.077 2.26968 374.65 3.20953 373.452 4.40399C372.233 5.57046 371.27 6.97839 370.626 8.53769C369.982 10.097 369.67 11.7734 369.709 13.4601C369.709 16.8764 371.067 20.1528 373.482 22.5685C375.898 24.9842 379.174 26.3416 382.591 26.3416C386.007 26.3416 389.283 24.9842 391.699 22.5685C394.115 20.1528 395.472 16.8764 395.472 13.4601C395.512 11.7734 395.199 10.097 394.555 8.53769C393.911 6.97839 392.949 5.57046 391.73 4.40399C390.53 3.21147 389.103 2.27283 387.533 1.64406C385.962 1.01529 384.282 0.709486 382.591 0.744526Z" fill="#4955F2"/>
<path d="M459.837 42.1998C453.794 41.9296 447.855 43.8453 443.11 47.5963C440.244 49.9847 437.984 53.0171 436.514 56.4457L435.273 43.7505H415.259V129.598H436.493V87.8114C436.493 79.4583 438.699 73.2555 443.11 69.2029C447.534 65.0677 453.613 63.0001 461.387 63.0001H469.224V43.3164C467.632 42.8866 466.006 42.596 464.365 42.4479C462.917 42.2412 461.408 42.1998 459.837 42.1998Z" fill="#4955F2"/>
<path d="M516.468 16.7683H495.233V43.5852H478.692V61.346H495.233V129.598H516.468V61.346H533.009V43.5852H516.468V16.7683Z" fill="#4955F2"/>
<path d="M604.57 43.5853L581.288 106.317L559.082 43.5853H536.628L571.219 133.299L568.841 139.688C567.987 142.52 566.534 145.136 564.582 147.359C563.028 149.012 561.078 150.243 558.917 150.936C556.535 151.602 554.07 151.923 551.597 151.887H538.902V169.461C541.312 170.184 543.783 170.682 546.284 170.95C549.093 171.249 551.916 171.394 554.74 171.384C561.096 171.609 567.345 169.71 572.501 165.988C577.256 162.39 581.206 156.642 584.348 148.744L626.466 43.5853H604.57Z" fill="#4955F2"/>
<path d="M32.4201 2.31567H0V22.8677H32.4201V129.598H54.709V2.31567H50.8839H32.4201Z" fill="#4955F2"/>
<path d="M130.88 0.0620117C117.863 0.0620117 105.139 3.92194 94.3163 11.1535C83.4935 18.385 75.0583 28.6633 70.0771 40.6888C65.0959 52.7144 63.7926 65.9472 66.332 78.7135C68.8713 91.4798 75.1393 103.206 84.3433 112.41C93.5473 121.614 105.274 127.882 118.04 130.422C130.806 132.961 144.039 131.658 156.065 126.676C168.09 121.695 178.369 113.26 185.6 102.437C192.832 91.6145 196.692 78.8906 196.692 65.8742C196.692 48.4198 189.758 31.6802 177.416 19.3381C165.074 6.99594 148.334 0.0620117 130.88 0.0620117ZM130.88 123.767L121.555 69.6165L97.839 32.7097L140.225 61.8836L130.88 123.767Z" fill="#4955F2"/>
</g>
<defs>
<clipPath id="clip0_103_220">
<rect width="1000" height="171.384" fill="white"/>
</clipPath>
</defs>
</svg>
