<svg width="1000" height="655" viewBox="0 0 1000 655" fill="none" xmlns="http://www.w3.org/2000/svg">
<g clip-path="url(#clip0_103_34)">
<path d="M664.138 592.267V485.516H641.87V612.799H645.695H664.138H717.255V592.267H664.138Z" fill="#3F3F3F"/>
<path d="M757.986 615.073C748.93 615.073 741.762 612.606 736.483 607.671C733.853 605.188 731.786 602.17 730.42 598.821C729.054 595.473 728.421 591.87 728.564 588.256C728.419 584.688 729.089 581.134 730.522 577.864C731.955 574.593 734.114 571.691 736.834 569.379C742.348 564.664 750.212 561.908 760.426 561.108L786.188 559.041V557.118C786.376 553.825 785.661 550.544 784.12 547.627C782.674 545.258 780.497 543.423 777.918 542.396C774.919 541.237 771.724 540.675 768.51 540.742C762.307 540.742 757.428 542.004 754.037 544.485C752.394 545.693 751.074 547.286 750.194 549.126C749.314 550.965 748.901 552.993 748.992 555.03H730.9C730.76 549.234 732.43 543.539 735.676 538.737C739.107 533.965 743.815 530.259 749.26 528.047C755.682 525.372 762.589 524.062 769.544 524.201C776.444 524.028 783.292 525.443 789.558 528.337C795.019 530.96 799.523 535.226 802.439 540.536C805.648 546.735 807.207 553.656 806.968 560.633V612.881H788.359L786.808 600.165C784.617 604.909 780.825 608.73 776.098 610.958C770.494 613.806 764.27 615.22 757.986 615.073ZM764.788 599.049C767.651 599.203 770.516 598.791 773.219 597.836C775.923 596.882 778.412 595.404 780.543 593.487C782.543 591.452 784.095 589.021 785.1 586.35C786.104 583.68 786.538 580.829 786.374 577.98V573.452L768.427 574.858C761.811 575.437 757.111 576.815 754.326 578.993C753.011 579.964 751.948 581.238 751.229 582.706C750.509 584.175 750.153 585.794 750.191 587.429C750.086 589.08 750.378 590.732 751.043 592.247C751.709 593.762 752.728 595.095 754.016 596.134C757.186 598.27 760.974 599.295 764.788 599.049Z" fill="#3F3F3F"/>
<path d="M847.494 612.819H827.872V483.263H849.106V539.336C851.921 534.428 856.181 530.508 861.305 528.109C866.899 525.439 873.034 524.095 879.231 524.181C886.707 523.962 894.075 525.994 900.383 530.012C906.366 534.043 911.078 539.694 913.967 546.304C917.302 553.924 918.939 562.179 918.764 570.495C918.913 578.502 917.186 586.433 913.719 593.652C910.562 600.163 905.604 605.631 899.432 609.408C892.911 613.285 885.431 615.249 877.846 615.073C871.815 615.174 865.855 613.752 860.52 610.938C855.577 608.378 851.536 604.366 848.941 599.442L847.494 612.819ZM849.23 569.399C849.14 574.123 850.152 578.803 852.187 583.066C854.017 586.912 856.954 590.124 860.623 592.288C864.499 594.495 868.899 595.617 873.36 595.534C877.879 595.663 882.343 594.517 886.241 592.226C889.857 590.047 892.737 586.835 894.511 583.004C896.353 578.712 897.303 574.091 897.303 569.42C897.303 564.75 896.353 560.128 894.511 555.836C892.723 551.987 889.848 548.746 886.241 546.511C882.326 544.289 877.902 543.121 873.401 543.121C868.9 543.121 864.476 544.289 860.561 546.511C856.945 548.748 854.024 551.949 852.125 555.753C850.079 560.026 849.086 564.726 849.23 569.461V569.399Z" fill="#3F3F3F"/>
<path d="M928.956 586.705H949.156C949.147 588.397 949.514 590.071 950.229 591.604C950.944 593.138 951.99 594.494 953.291 595.575C956.501 597.955 960.447 599.127 964.436 598.883C968.49 599.158 972.531 598.184 976.014 596.092C977.252 595.283 978.263 594.17 978.951 592.86C979.638 591.55 979.98 590.086 979.943 588.608C979.965 586.562 979.229 584.58 977.875 583.046C975.713 581.033 972.971 579.752 970.039 579.386L954.532 575.726C946.758 573.99 940.982 571.177 937.205 567.29C935.248 565.111 933.741 562.566 932.772 559.802C931.803 557.037 931.392 554.108 931.561 551.184C931.424 546.007 932.978 540.926 935.985 536.711C939.085 532.543 943.279 529.315 948.102 527.386C953.685 525.145 959.661 524.048 965.676 524.16C971.497 524.048 977.27 525.242 982.569 527.654C987.275 529.745 991.267 533.167 994.052 537.498C996.837 541.83 998.293 546.882 998.241 552.031H978.041C978.124 550.4 977.858 548.77 977.258 547.251C976.659 545.732 975.741 544.358 974.567 543.223C971.84 540.953 968.35 539.807 964.808 540.019C961.335 539.814 957.896 540.79 955.049 542.789C953.92 543.679 953.018 544.823 952.414 546.127C951.811 547.431 951.523 548.859 951.575 550.295C951.575 555.05 955.29 558.296 962.72 560.033L978.227 563.693C984.27 564.752 989.902 567.465 994.499 571.529C998.151 575.127 999.978 580.234 999.978 586.85C1000.11 592.222 998.523 597.494 995.45 601.902C992.228 606.292 987.826 609.677 982.755 611.661C976.766 614.013 970.373 615.165 963.94 615.052C953.271 615.052 944.766 612.44 938.425 607.216C935.367 604.763 932.92 601.634 931.277 598.075C929.634 594.516 928.839 590.624 928.956 586.705Z" fill="#3F3F3F"/>
<path d="M239.636 500.031H218.401V526.848H201.86V544.609H218.401V612.861H239.636V544.609H256.177V526.848H239.636V500.031Z" fill="#4955F2"/>
<path d="M318.868 524.243C313.133 524.137 307.458 525.421 302.327 527.985C297.759 530.26 293.883 533.715 291.1 537.992V483.325H269.617V612.861H290.852V565.843C290.786 561.874 291.65 557.944 293.374 554.368C294.994 551.068 297.536 548.31 300.693 546.428C304.157 544.447 308.097 543.453 312.086 543.554C315.377 543.475 318.628 544.29 321.493 545.911C324.22 547.587 326.381 550.044 327.696 552.962C329.339 556.747 330.116 560.851 329.971 564.975V612.861H351.205V559.93C351.205 548.903 348.448 540.198 342.935 533.816C337.421 527.434 329.399 524.243 318.868 524.243Z" fill="#4955F2"/>
<path d="M393.384 526.848H372.149V612.861H393.384V526.848Z" fill="#4955F2"/>
<path d="M382.591 484.028C380.901 483.986 379.22 484.288 377.649 484.913C376.079 485.538 374.651 486.475 373.452 487.667C372.233 488.833 371.27 490.241 370.626 491.8C369.982 493.36 369.67 495.036 369.709 496.723C369.709 500.139 371.067 503.415 373.482 505.831C375.898 508.247 379.174 509.604 382.591 509.604C386.007 509.604 389.283 508.247 391.699 505.831C394.115 503.415 395.472 500.139 395.472 496.723C395.512 495.036 395.199 493.36 394.555 491.8C393.911 490.241 392.949 488.833 391.73 487.667C390.529 486.477 389.101 485.542 387.531 484.916C385.961 484.291 384.28 483.989 382.591 484.028Z" fill="#4955F2"/>
<path d="M459.837 525.463C453.794 525.192 447.855 527.108 443.11 530.859C440.244 533.247 437.984 536.28 436.514 539.708L435.273 527.013H415.259V612.86H436.493V571.074C436.493 562.721 438.699 556.484 443.11 552.362C447.534 548.227 453.613 546.159 461.387 546.159H469.224V526.476C467.632 526.046 466.006 525.755 464.365 525.607C462.917 525.525 461.408 525.463 459.837 525.463Z" fill="#4955F2"/>
<path d="M516.468 500.031H495.233V526.848H478.692V544.609H495.233V612.861H516.468V544.609H533.009V526.848H516.468V500.031Z" fill="#4955F2"/>
<path d="M604.57 526.848L581.288 589.579L559.082 526.848H536.628L571.219 616.562L568.841 622.951C567.987 625.783 566.534 628.399 564.582 630.621C563.028 632.275 561.078 633.506 558.917 634.198C556.535 634.865 554.07 635.185 551.597 635.149H538.902V652.724C541.312 653.446 543.783 653.945 546.284 654.213C549.093 654.512 551.916 654.657 554.74 654.647C561.096 654.872 567.345 652.973 572.501 649.25C577.256 645.653 581.206 639.905 584.348 632.007L626.466 526.848H604.57Z" fill="#4955F2"/>
<path d="M32.4201 485.578H0V506.13H32.4201V612.861H54.709V485.578H50.8839H32.4201Z" fill="#4955F2"/>
<path d="M130.88 483.325C117.863 483.325 105.139 487.185 94.3163 494.416C83.4935 501.648 75.0583 511.926 70.0771 523.952C65.0959 535.977 63.7926 549.21 66.332 561.976C68.8713 574.742 75.1393 586.469 84.3433 595.673C93.5473 604.877 105.274 611.145 118.04 613.684C130.806 616.224 144.039 614.92 156.065 609.939C168.09 604.958 178.369 596.523 185.6 585.7C192.832 574.877 196.692 562.153 196.692 549.137C196.692 531.682 189.758 514.943 177.416 502.601C165.074 490.258 148.334 483.325 130.88 483.325ZM130.88 593.528C122.101 593.524 113.52 590.917 106.222 586.037C98.925 581.157 93.2384 574.222 89.8817 566.11C86.525 557.999 85.6489 549.073 87.3641 540.464C89.0793 531.854 93.3087 523.946 99.5178 517.74C105.727 511.534 113.637 507.308 122.247 505.597C130.858 503.885 139.783 504.766 147.893 508.126C156.003 511.487 162.935 517.177 167.812 524.476C172.689 531.776 175.292 540.358 175.292 549.137C175.275 560.903 170.588 572.181 162.261 580.494C153.933 588.806 142.646 593.472 130.88 593.466V593.528Z" fill="#4955F2"/>
<path d="M502.492 0.0620422C463.61 0.0620422 425.602 11.5919 393.273 33.1933C360.944 54.7947 335.747 85.4975 320.868 121.419C305.988 157.341 302.095 196.868 309.681 235.003C317.266 273.137 335.99 308.166 363.483 335.66C390.976 363.153 426.005 381.876 464.139 389.461C502.274 397.047 541.801 393.154 577.723 378.275C613.645 363.395 644.348 338.198 665.949 305.869C687.551 273.54 699.08 235.532 699.08 196.65C699.08 144.512 678.368 94.5089 641.501 57.6414C604.633 20.7739 554.63 0.0620422 502.492 0.0620422ZM502.492 369.565L474.6 207.836L403.805 97.612L530.384 184.741L502.492 369.565Z" fill="#4955F2"/>
</g>
<defs>
<clipPath id="clip0_103_34">
<rect width="1000" height="654.647" fill="white"/>
</clipPath>
</defs>
</svg>
